<?xml version="1.0" encoding="utf-8"?>
<!-- Generator: Adobe Illustrator 18.1.1, SVG Export Plug-In . SVG Version: 6.00 Build 0)  -->
<svg version="1.1" id="Layer_1" xmlns="http://www.w3.org/2000/svg" xmlns:xlink="http://www.w3.org/1999/xlink" x="0px" y="0px"
	 viewBox="0 0 159.1 151" enable-background="new 0 0 159.1 151" xml:space="preserve">
<g>
	<g>
		<path fill-rule="evenodd" clip-rule="evenodd" fill="#0E123A" d="M80.1,138c-42.7,0-56,7-56,7v3l55.9,1l56.1-1v-3
			C136.1,145,122.7,138,80.1,138z"/>
	</g>
</g>
<path fill-rule="evenodd" clip-rule="evenodd" fill="#0E123A" d="M0.1,40c0,0,33.4-29,79.5-29c44.4,0,79.5,29,79.5,29s4.2,68-79,111
	C-6,106.1,0.1,40,0.1,40z"/>
<g>
	<g>
		<path fill-rule="evenodd" clip-rule="evenodd" fill="#FFFFFF" d="M154.9,42.4c0,0-30.9-26.4-75.3-26.4C33.4,16,4.2,42.4,4.2,42.4
			S-1.2,99.7,80.1,147C160,98.7,154.9,42.4,154.9,42.4z"/>
	</g>
</g>
<path fill-rule="evenodd" clip-rule="evenodd" fill="#0E123A" d="M8.3,44.3c0,0,27.7-24.8,71.4-24.8c42.1,0,71.4,24.8,71.4,24.8
	s4.2,49.8-70.8,98.2C4.9,98,8.3,44.3,8.3,44.3z"/>
<path fill-rule="evenodd" clip-rule="evenodd" fill="#0E123A" d="M78.1,4h24l22,11l10,3l3,13l6,3l-1,10l3,8l-10,28l-8,13l-18,23
	l-29,22l-28-20l-33-37l-7-35l31-16l14-18L78.1,4z"/>
<g>
	<g>
		<path fill-rule="evenodd" clip-rule="evenodd" fill="#FFFFFF" d="M83.5,30.5L83.5,30.5C83.4,30.5,83,30.3,83.5,30.5l3.6,0.2
			c0,0-0.5-1.1-1.7-1.8c-1.5-0.9-3.8-1.5-3.8-1.5s2.5-2.2,5.7-0.2S93,27,93,27s-12.9-8.4-14.2-3.5c-1.3,4.9-0.5,8.4,8.4,8.5
			C84.9,31,83.9,30.6,83.5,30.5z M-334.5,30.5c-0.1,0.1-0.1,0.1-0.1,0.1S-334.6,30.6-334.5,30.5z M113.7,81.7
			c-2.8-0.8-6.2-3.5-6.5-5.7c0-0.2,0-0.3-0.1-0.4c0,0,0,0,0.1,0c-0.6-6.3,0.4-11.3,3.3-15.5c1.4-1.5,3.6-3.2,6.5-3.7
			c0.9-0.2,1.8-0.3,2.6-0.4c0.3,0.1,0.8,0,1.2-0.1c2.6-0.1,4.7,0.3,5.7,0.6c0,0,0,0,0,0c2.1,0.6,3.8,0.1,5.4-0.8
			c1.3-0.7,2.6-1.9,2.3-3.4c-0.6-3.2-3.4-5.4-6.9-5.7c-1.5-0.4-3.2-1-6.1-1.5l4.5,4.4l-10.2-5l5.1,0l0.6,0.6c1.1-0.6,2.2-1.4,3-1.9
			c0.1,0,0.1-0.1,0.2-0.1c0.3-0.2,0.4-0.3,0.4-0.3s0,0,0,0c0.1-0.1,0.3-0.2,0.4-0.4c-4.2,0.6-7-1.6-9.6-4.5
			c-0.3-0.3-0.7-0.4-1.1-0.2c-0.7,0.4-0.3,0.8-0.1,1.3c0.7,1.5,2.2,2.1,3.3,3.2c-6.3-0.9-10.2-8-17.5-6.2c2.4-1.9,4.7-2.7,7.2-1
			c1.6,1,3.3,1.1,5,0.5c4.6-1.6,7.7,0.8,10.4,4c1.1,1.3,2,1.5,3.4,1.1c1.1-0.3,2.3-0.5,3.5-0.8c-0.5-0.6-1.2-1.3-1.1-1.5
			c0.4-0.7,1.2-0.8,1.9-0.4c2,1.1,3.9,2.4,4.5,5.3c-2.2-0.6-4.4-2.2-5.8,1c3.3,0.7,9.8,1.5,13.1,4.6c0-2.9-5.9-6.5-6.9-8.4
			c0.8-1,2.1,0.4,2.5-0.9c0.2-0.9,0.2-2-0.8-2.4c-7-2.8-11.9-9.3-20.4-9.6c-11.8-0.4-21.8,6.5-27.2,13.2c-1.7,2.1-4.5,6.4-5.9,11.5
			c-1.6,6.4-1.5,13.8-1,16.9c0.8,5.6,1.7,11.2,6.7,15c1.1-1.6,0.2-2.1,1.7-3.6c0.8,1.8,0.9,2.4,1.6,4.1c1.3,3.1,6.1,4.1,6.1,4.1
			s-3.8-3.8-3.3-7.8c-1.3-7.1-2-2.4-5.3-13.9c-1.2,1.5-0.6,3.2-1.6,4.7c-1.8-4.7-2.9-9.2-2-14c-1.3-0.2-1.4,1.2-2.3,0.8
			c0.3-7.4,3.9-14.7,8.6-17.1C89,49,88.5,51.9,89.9,55.5c0.9-0.9,1-2.4,2.4-3c0.2,3.8-0.1,7.5,1.6,10.8c1,2.1,1.9,4.1,4,0.8
			c0.6,3.9,1.9,7,6,9.6c1,2.1,1.7,3.9-0.7,4.7c-3,1-3.7,0.5-3.7,0.5s-0.9,4.3,7.6,7.5c-0.5,0.9-2.4,2.2-2.4,2.2s8.7,2.9,14.8,0.7
			c-0.3,1.2-1.5,2.5-1.5,2.5s7.1,0.1,5.9-5.2C122.5,81.3,116.5,82.5,113.7,81.7z M116.5,47.1l7.2,5.2l-7.4-3.1l-5.6,1.3L116.5,47.1z
			 M125.9,33c0.3,0.9,0.7,2.1-0.4,2.4c-1.3,0.4-1.1-1.1-1.3-1.8c-0.3-0.7-0.5-1.5-0.7-2.5C125.2,31.1,125.6,32,125.9,33z
			 M113.5,31.8c1.6-1.4,3.6-1.3,5.5-1.1c1.5,0.1,2.7,0.8,3,2.9c-2.7-1.3-5.1-1.5-7.5-0.6c-0.3,0.1-0.8,0.1-1.1-0.1
			C113,32.6,113.2,32.1,113.5,31.8z M96.8,50.6c-0.6,0.1-0.3-0.8-0.4-1.3c-0.1-1.9,0.8-3.6,1.4-5.4c-1.7,0-2.4,1.6-3.7,2
			c0.1-3.5,2.9-6.4,7.2-7.7c0.9,2-2.1,4.7,1.5,6.4c-0.1,0.8-1.4,1.9-1,3.6c3.7-2.9,3.2,2.7,5.6,2.7C103.8,52.6,100.4,50,96.8,50.6z
			 M140.9,50.6c-1.3,0.1-2.1,0.9-3.1,1.4c-2.3,1.4-3.4,4.2-2.1,5.9c1.3,1.7,2,1.9,4-0.2c2.2-2.3,2.2-2,3.3-3.8
			C142.8,52.6,142.5,51.9,140.9,50.6z M135.2,62.4c-1.8-1.3-2.7-4.4-5.9-2.7c-0.9,0.5-2.2,0.5-3.3,0.4c-3.7-0.5-5,1.4-4.9,4.9
			c1.6-0.4,3-1.2,4.2-2.3c1.9-1.7,3.7-0.2,5.4,0.3c1.9,0.6-0.3,2,0.2,3.1c1.5-0.4,2.6-1.5,3.8-2.4C135.1,63.5,136,63,135.2,62.4z
			 M118.2,74.3c-3,2.5-6,4.6-8.8-0.2c1.9,4.7,3.6,6,8.1,6.4c1.2,0.1,2.5,0.2,3.6,0.6c3.4,1.1,4.1,0.8,4.8-2.9
			C120.8,79.7,118.3,78.6,118.2,74.3z"/>
	</g>
</g>
<path fill-rule="evenodd" clip-rule="evenodd" fill="#D89827" d="M141.9,44.7l-1.6-2.9c0,0,2.8-5.7-0.4-7c-3.2-1.3-7.3-2.9-7.3-2.9
	s4.3-4.9-1.7-12.3c0,0,3.1,4.1-1.2,10.3c-2.2-2.1-7.9-4.8-14.8-4.7c-1-1.1-1.2-2-1.3-4.6c-0.3-5.6,0.2-10.6-15.3-13.5
	c4,2.2,5.4,3.6,5.4,3.6S93.2,5.5,79.5,8c17.8,2.7,19.9,4.1,23.3,7.2c2.6,2.4,3.8,7.5,8.5,10.2c-5.4,0.6-9.4,1.8-11.9,3.2
	c-13.4,7.5-16.2,17.1-18,21.3l-0.2,0.1c-1.8,6.4-3.1,16.6,1,29.9c7.2,23.3,34.7,16.4,34.7,16.4s-15.4,28.5-38.7,37.9
	c-0.6,0.4-1,0.6-1,0.6s-37.9-15.4-44.6-45.5c-5.3,2.6-6.2,4-10,6.6c1.2-10.7,4.8-15.3,4.8-15.3s-3.4-1-6.3,3.6
	c-3.6-12,2-18.3,3.6-25.3c1.6-6.9,0.2-12.5,3.6-20.8c3.4-8.2,10.8-13.5,10.8-13.5s-8.3,0.8-11.7-0.9c16.2-7.9,11.8-6.5,21.6-14
	c9.8-7.5,24.2-5.3,24.2-5.3s0-0.4-3.6-2.7C84.6,3.1,85.4,0.2,100.3,0c14.9-0.2,23.3,10.8,23.3,10.8s0.2-1.2,0-4.5
	c4.2,5.6,10.3,6.6,14.4,13.5c4.1,7,1.8,12.1,1.8,12.1s2.1-0.4,2.7-6.3C148.7,30.9,141.9,44.7,141.9,44.7z M95.8,26.6
	c0,0-11.6-8-15.3-6.1c-3.7,1.9-4.8,3.8-3.6,9.6s11.5,3.6,11.5,3.6L95.8,26.6z M88.1,96c-7.9-3.7-21.3-10.7-23-26c3.8,12,14,14,14,14
	s-4.5-7.4-7-15c-2.5-7.4-3-15-3-15c-3.2,8.8,1,19,1,19s-3.9-2.5-6-11C64.1,62,51.6,84.2,88.1,96z M60.7,56.1
	c-0.4-7.3,4.9-11.9,4.9-11.9l0.2,3.7c0,0,5.7-4.5,5.1-12.8c0,0-3,4.4-9.6,7.4c-6.6,3-3.4,10.1-5.1,12.8c-1.7,2.7-4.8,6.4-4.8,6.4
	l4.6-0.1c0,0-0.4,4.1-6.9,7.9C56.7,69.3,61,63.5,60.7,56.1z M58.6,18.4c2.6,0,2.6,0.7,2.6,0.7s-6.8,2.6-13,10.6
	c-6.2,8-17.6,15.5-17.6,15.5s11.3-4.7,14.6-7.8c3.3-3.1,7-1.9,7-1.9S41,40.1,40.2,60.3c4.2-12.8,9-20.7,16.2-22.8
	c7.1-2.1,13.2-7.7,13.2-7.7s-5.1,2.6-9.6,1.2c-3.5-1.1-4.3-0.7-4.5-0.4c0.5-1,4.3-8.5,17.5-10.2c-1.6-1.7-5-2.2-5-2.2
	s3.4-4.8,10.3-3.8C78.3,14.3,69.3,9,58.6,18.4z M55.5,30.5c0,0.1-0.1,0.1-0.1,0.1S55.4,30.6,55.5,30.5z"/>
<path fill-rule="evenodd" clip-rule="evenodd" fill="#0E123A" d="M136.1,126.9v21c0,0-29.5-9-56-9s-56,9-56,9v-21c0,0,13.3-7,56-7
	S136.1,126.9,136.1,126.9z"/>
<path fill-rule="evenodd" clip-rule="evenodd" fill="#0E123A" d="M136.1,132l12,4v-13l-3-2v-19l3-1V90l-30-1v1c0,0-2.7-2-8-2
	c-11.1,0-13,6-13,6l-4-6h-11l-6,19h-8v-8l3-3v-8h-18v2c0,0-2.5-2-8-2c-5.5,0-13,0-13,0v2c0,0-0.9-1-7-1s-13,3.7-13,13s4,11,4,11
	s-4,1.1-4,6c0,4.9,0,3.4,0,6c0,2.6,3.8,7,10,7s2,0,2,0s19-9,56-9C117.1,123,136.1,132,136.1,132z"/>
<path fill-rule="evenodd" clip-rule="evenodd" fill="#D89827" d="M28.1,130c0,0,15.5-7,51.8-7c36.3,0,52.2,7,52.2,7v13.9
	c0,0-24.8-8-52.4-8c-27.5,0-51.6,8-51.6,8V130z"/>
<path fill-rule="evenodd" clip-rule="evenodd" fill="#D89827" d="M45.1,144l18-2.8l5.3,3.8L45.1,144z"/>
<path fill-rule="evenodd" clip-rule="evenodd" fill="#D89827" d="M116.1,144l-19.6-2.8l-5.3,3.8L116.1,144z"/>
<path fill="#FFFFFF" d="M32.4,96.8c-1-1.2-2.1-2.1-3.5-2.8c-1.4-0.7-3-1-4.7-0.9c-2.3,0.2-4.2,1.2-5.8,3.1c-1.5,2-2.3,4.5-2.3,7.4
	c0,3,0.7,5.2,2,6.6c1.3,1.4,3.3,2.4,6,3c1.5,0.4,2.6,0.9,3.2,1.5c0.6,0.6,0.9,1.6,0.9,2.8c0,1.2-0.3,2.3-1,3.2
	c-0.6,0.9-1.6,1.5-2.8,1.9c-0.9,0.3-1.8,0.4-2.6,0.2c-0.8-0.1-1.4-0.4-1.8-0.9c-0.2-1.6-0.3-3.2-0.5-4.9c-1.1,0.3-2.3,0.6-3.4,0.9
	c0,2.5,0,5,0,7.6c0.9,1.3,2.1,2.1,3.5,2.5c1.4,0.4,3,0.3,4.7-0.3c2.4-0.8,4.4-2.3,5.9-4.3c1.5-2,2.3-4.3,2.3-7c0-2.6-0.6-4.6-1.9-6
	c-1.3-1.4-3.1-2.4-5.6-3c-1.7-0.5-2.9-1.1-3.6-1.8c-0.7-0.6-1-1.6-1-2.7c0-1.3,0.3-2.4,1-3.2c0.7-0.9,1.6-1.4,2.8-1.5
	c0.8-0.1,1.6,0,2.4,0.2c0.7,0.2,1.3,0.5,1.7,0.8c0.2,1.5,0.4,3,0.6,4.4c1.1-0.1,2.2-0.3,3.4-0.4C32.4,101.1,32.4,98.9,32.4,96.8
	L32.4,96.8z"/>
<path fill="#FFFFFF" d="M38.1,92.9c-0.8,0-1.6,0.1-2.4,0.1c0,1.2,0,2.5,0,3.7c0.8,0.2,1.6,0.3,2.4,0.5c0,7.3-0.1,14.6-0.1,21.9
	c-0.8,0.4-1.6,0.8-2.4,1.2c0,1.2,0,2.5,0,3.7c3.1-0.8,6.2-1.5,9.2-2.2c0-1.2,0-2.3,0-3.5c-0.8-0.1-1.6-0.1-2.4-0.1
	c0-2.2,0-4.4,0-6.6c1.3-0.2,2.5-0.4,3.8-0.6c2.6-0.4,4.6-1.4,6.1-3.2c1.5-1.8,2.2-4,2.3-6.6c0-2.6-0.7-4.7-2.2-6.3
	c-1.5-1.6-3.5-2.4-6-2.3C43.6,92.6,40.9,92.7,38.1,92.9z M42.6,97.3c1.3-0.1,2.5-0.2,3.8-0.2c1.2-0.1,2.2,0.3,2.8,1.2
	c0.6,0.9,0.9,2,0.9,3.3c0,1.3-0.3,2.5-1,3.4c-0.6,0.9-1.6,1.5-2.8,1.6c-1.3,0.1-2.5,0.3-3.8,0.5C42.5,103.7,42.5,100.5,42.6,97.3z"
	/>
<path fill="#FFFFFF" d="M74.1,118.3c0-2.4,0-4.9,0-7.3c-1.1,0-2.3,0.1-3.4,0.1c-0.1,1.1-0.2,2.2-0.2,3.3c-2.1,0.1-4.2,0.2-6.4,0.4
	c0-6.3,0.1-12.6,0.1-18.9c0.8-0.2,1.6-0.4,2.4-0.6c0-1.1,0-2.1,0-3.2c-0.8,0-1.6,0-2.4,0c-1.5,0-3,0.1-4.5,0.1c-0.8,0-1.6,0-2.4,0.1
	c0,1.1,0,2.2,0,3.3c0.8,0.2,1.6,0.3,2.4,0.5c0,6.5-0.1,13-0.1,19.5c-0.8,0.3-1.6,0.5-2.4,0.8c0,1.1,0,2.2,0,3.3
	C62.8,118.9,68.5,118.5,74.1,118.3z"/>
<g>
	<g>
		<path fill-rule="evenodd" clip-rule="evenodd" fill="#0E123A" d="M35.8,132c0.2,0,0.4,0,0.5,0.2c0.1,0.2,0.2,0.5,0.2,0.9
			c0.4-0.1,0.7-0.2,1.1-0.3c0-0.5-0.1-1-0.2-1.3c-0.1-0.4-0.3-0.6-0.6-0.8c-0.3-0.2-0.5-0.2-0.9-0.1c-0.5,0.1-0.9,0.4-1.2,0.9
			c-0.3,0.5-0.5,1.1-0.5,1.9c0,0.6,0.1,1.1,0.4,1.5c0.2,0.4,0.6,0.7,1.2,0.9c0.3,0.1,0.5,0.3,0.6,0.4c0.1,0.2,0.2,0.4,0.2,0.7
			c0,0.6-0.2,1-0.6,1.1c-0.3,0.1-0.5,0-0.6-0.2c-0.1-0.2-0.2-0.5-0.2-1c-0.4,0.1-0.7,0.2-1.1,0.3c0,0.6,0.1,1.1,0.2,1.4
			c0.2,0.4,0.4,0.7,0.7,0.8c0.3,0.2,0.6,0.2,0.9,0.1c0.5-0.1,0.9-0.4,1.2-0.9c0.3-0.5,0.4-1.1,0.4-1.8c0-0.7-0.1-1.2-0.4-1.6
			c-0.2-0.4-0.6-0.7-1.1-0.8c-0.3-0.1-0.5-0.3-0.6-0.4c-0.1-0.2-0.2-0.4-0.2-0.6c0-0.3,0.1-0.6,0.2-0.8
			C35.4,132.2,35.6,132,35.8,132z M40.6,131c0.4-0.1,0.9-0.2,1.3-0.3v7.1c0.4-0.1,0.7-0.1,1.1-0.2v-7.1c0.4-0.1,0.9-0.2,1.3-0.3
			v-1.4c-1.2,0.2-2.5,0.5-3.7,0.8V131z M49.3,131.8c-0.3-1.2-0.5-2.5-0.8-3.7c-0.4,0.1-0.8,0.1-1.2,0.2c0.5,1.7,1,3.5,1.4,5.2v3.1
			c0.4-0.1,0.7-0.1,1.1-0.2v-3.1c0.5-1.9,1-3.8,1.4-5.7c-0.4,0.1-0.8,0.1-1.2,0.2C49.9,129.1,49.6,130.4,49.3,131.8z M55.6,127
			c-0.4,0-0.7,0.1-1.1,0.1v8.5c1-0.1,2-0.3,3-0.4v-1.4c-0.6,0.1-1.3,0.2-1.9,0.2V127z M62,131.1c0.6-0.1,1.1-0.1,1.7-0.2v-1.4
			c-0.6,0.1-1.1,0.1-1.7,0.2v-2c0.7-0.1,1.3-0.1,2-0.2V126c-1,0.1-2.1,0.2-3.1,0.3v8.5c1-0.1,2.1-0.2,3.1-0.3v-1.4
			c-0.7,0.1-1.3,0.1-2,0.2V131.1z M69.8,131.8c-0.3-2-0.7-4.1-1-6.1c-0.5,0-0.9,0.1-1.4,0.1v8.5c0.4,0,0.7-0.1,1.1-0.1v-2.3
			c0-1.2-0.1-2.4-0.1-3.5c0.4,1.9,0.7,3.9,1.1,5.8c0.2,0,0.5,0,0.7,0c0.4-2,0.7-4,1.1-5.9c0,1.2-0.1,2.4-0.1,3.6v2.3
			c0.4,0,0.7,0,1.1-0.1v-8.5c-0.5,0-0.9,0-1.4,0.1C70.4,127.6,70.1,129.7,69.8,131.8z M75.8,133.8c0.4,0,0.7,0,1.1,0v-8.5
			c-0.4,0-0.7,0-1.1,0V133.8z M84.3,125.3c-0.4,0-0.8,0-1.2,0c-0.2,1-0.5,1.9-0.7,2.9c-0.2-1-0.5-2-0.7-2.9c-0.4,0-0.8,0-1.2,0
			c0.4,1.4,0.8,2.8,1.3,4.2c-0.4,1.4-0.9,2.9-1.3,4.3c0.4,0,0.8,0,1.3,0c0.2-1,0.5-2,0.7-3c0.2,1,0.5,2,0.7,3c0.4,0,0.8,0,1.3,0
			c-0.4-1.4-0.9-2.9-1.3-4.3C83.5,128.1,83.9,126.7,84.3,125.3z M87.4,126.8c0.4,0,0.9,0,1.3,0v7.1c0.4,0,0.7,0,1.1,0v-7.1
			c0.4,0,0.9,0,1.3,0.1v-1.4c-1.2-0.1-2.5-0.1-3.7-0.1V126.8z M97.1,129.3c-0.5,0-1.1-0.1-1.6-0.1v-3.5c-0.4,0-0.7-0.1-1.1-0.1v8.5
			c0.4,0,0.7,0,1.1,0.1v-3.7c0.5,0,1.1,0.1,1.6,0.1v3.7c0.4,0,0.7,0.1,1.1,0.1V126c-0.4,0-0.7-0.1-1.1-0.1V129.3z M102.9,131.3
			c0.6,0.1,1.1,0.1,1.7,0.2v-1.4c-0.6-0.1-1.1-0.1-1.7-0.2v-2c0.7,0.1,1.3,0.2,2,0.2v-1.4c-1-0.1-2.1-0.2-3.1-0.3v8.5
			c1,0.1,2.1,0.2,3.1,0.4v-1.4c-0.7-0.1-1.3-0.2-2-0.2V131.3z M110.7,133.6c-0.3-2.1-0.7-4.2-1-6.3c-0.5-0.1-0.9-0.1-1.4-0.2v8.5
			c0.4,0.1,0.7,0.1,1.1,0.2v-2.3c0-1.2-0.1-2.4-0.1-3.6c0.4,2,0.7,4,1.1,6c0.2,0,0.5,0.1,0.7,0.1c0.4-1.9,0.7-3.8,1.1-5.7
			c0,1.2-0.1,2.4-0.1,3.5v2.3c0.4,0.1,0.7,0.1,1.1,0.2v-8.5c-0.5-0.1-0.9-0.2-1.4-0.2C111.4,129.6,111,131.6,110.7,133.6z
			 M117.8,133.5c0.6,0.1,1.1,0.2,1.7,0.3v-1.4c-0.6-0.1-1.1-0.2-1.7-0.3v-2c0.7,0.1,1.3,0.3,2,0.4V129c-1-0.2-2-0.4-3.1-0.6v8.5
			c1,0.2,2.1,0.4,3.1,0.6v-1.4c-0.7-0.1-1.3-0.3-2-0.4V133.5z M125,133.6c-0.3-0.3-0.5-0.5-0.6-0.7c-0.1-0.2-0.2-0.4-0.2-0.7
			c0-0.3,0.1-0.5,0.2-0.7c0.1-0.2,0.3-0.2,0.4-0.2c0.2,0,0.4,0.2,0.5,0.4c0.1,0.2,0.2,0.5,0.2,0.9c0.4,0.1,0.7,0.2,1.1,0.3
			c0-0.5-0.1-1-0.2-1.4c-0.1-0.4-0.3-0.8-0.6-1.1c-0.3-0.3-0.5-0.5-0.9-0.5c-0.5-0.1-0.9,0-1.2,0.4c-0.3,0.4-0.5,0.9-0.5,1.6
			c0,0.6,0.1,1.1,0.4,1.6c0.2,0.5,0.6,1,1.2,1.4c0.3,0.3,0.5,0.5,0.6,0.7c0.1,0.2,0.2,0.5,0.2,0.8c0,0.6-0.2,0.9-0.6,0.8
			c-0.3-0.1-0.5-0.2-0.6-0.5c-0.1-0.2-0.2-0.6-0.2-1.1c-0.4-0.1-0.7-0.2-1.1-0.2c0,0.6,0.1,1.1,0.2,1.5c0.2,0.5,0.4,0.8,0.7,1.1
			c0.3,0.3,0.6,0.5,0.9,0.6c0.5,0.1,0.9,0,1.2-0.3c0.3-0.3,0.4-0.9,0.4-1.6c0-0.7-0.1-1.3-0.4-1.8
			C125.9,134.5,125.5,134.1,125,133.6z"/>
	</g>
</g>
<path fill="#FFFFFF" d="M76.8,118.2c2.6-0.1,5.1,0,7.7,0c0-1,0-2.1,0-3.1c-0.5-0.1-1-0.2-1.6-0.4c0.3-1.2,0.7-2.4,1-3.6
	c2.4,0,4.9,0.1,7.3,0.2c0.3,1.2,0.7,2.5,1,3.7c-0.5,0.1-1,0.2-1.6,0.2c0,1.1,0,2.1,0,3.2c2.6,0.2,5.1,0.4,7.7,0.6c0-1.1,0-2.2,0-3.2
	c-0.5-0.1-1.1-0.3-1.6-0.4c-2.3-8-4.6-15.7-6.9-23.4c-1.5,0-3.1,0-4.6,0c-2.3,7.6-4.5,15.1-6.8,22.7c-0.5,0.1-1.1,0.2-1.6,0.3
	C76.8,116.1,76.8,117.1,76.8,118.2L76.8,118.2z M87.5,98C87.5,98,87.5,98,87.5,98c0.9,3.1,1.8,6.2,2.6,9.3c-1.7-0.1-3.4-0.1-5.2-0.1
	C85.8,104.2,86.6,101.1,87.5,98z"/>
<path fill="#FFFFFF" d="M117.9,96.1c-1-1.2-2.2-2.2-3.6-2.9c-1.4-0.7-3-1.1-4.7-1.2c-2.3,0-4.2,0.7-5.8,2c-1.5,1.4-2.3,3.1-2.3,5.4
	c0,2.2,0.7,4,2.1,5.4c1.4,1.4,3.4,2.7,6.1,4c1.5,0.8,2.6,1.5,3.2,2.3c0.6,0.8,0.9,1.7,0.9,2.8c0,1.1-0.3,1.9-0.9,2.4
	c-0.6,0.5-1.6,0.7-2.8,0.5c-1-0.1-1.8-0.4-2.6-0.8c-0.8-0.4-1.4-0.9-1.8-1.4c-0.2-1.3-0.3-2.7-0.5-4c-1.2-0.1-2.3-0.2-3.5-0.3
	c0,1.9,0,3.8,0,5.7c1,1.3,2.2,2.4,3.6,3.3c1.4,0.9,3,1.5,4.8,1.8c2.5,0.4,4.5,0.1,6-1c1.5-1.1,2.2-3,2.2-5.5c0-2.4-0.7-4.5-2-6.1
	c-1.3-1.6-3.2-3-5.6-4.1c-1.7-0.8-2.9-1.6-3.6-2.2c-0.7-0.7-1.1-1.4-1.1-2.4c0-1,0.3-1.8,1-2.4c0.7-0.6,1.6-0.9,2.8-0.8
	c0.8,0,1.6,0.2,2.4,0.5c0.7,0.3,1.3,0.6,1.7,0.9c0.2,1.3,0.4,2.7,0.6,4c1.1,0.1,2.2,0.2,3.4,0.3C117.9,100.1,117.9,98.1,117.9,96.1z
	"/>
<path fill="#FFFFFF" d="M123.6,97.2c0,7.3,0.1,14.7,0.1,22c-0.8,0-1.6,0.1-2.4,0.1c0,1.2,0,2.4,0,3.6c3.1,0.7,6.2,1.6,9.2,2.5
	c0-1.3,0-2.6,0-3.9c-0.8-0.4-1.6-0.9-2.4-1.3c0-2.9,0-5.8,0-8.7c3,0.6,6.1,1.2,9.1,1.8c0,3.1,0,6.2,0,9.3c-0.8,0-1.6,0-2.4,0
	c0,1.3,0,2.7,0,4c3.1,1,6.1,2,9.1,3.2c0-1.4,0-2.9,0-4.3c-0.8-0.5-1.6-1-2.4-1.5c0-8.4,0-16.9,0-25.3c0.8-0.2,1.6-0.3,2.4-0.5
	c0-1.5,0-2.9,0-4.4c-0.8-0.1-1.6-0.1-2.4-0.1c-1.5-0.1-3-0.2-4.5-0.3c-0.8,0-1.6-0.1-2.4-0.1c0,1.3,0,2.7,0,4
	c0.8,0.3,1.6,0.6,2.4,0.9c0,3.3,0,6.5,0,9.8c-3-0.5-6-1-9.1-1.5c0-3,0-6.1-0.1-9.1c0.8-0.2,1.6-0.3,2.4-0.5c0-1.3,0-2.6,0-3.9
	c-3.1-0.2-6.2-0.3-9.2-0.4c0,1.2,0,2.4,0,3.7C122.1,96.7,122.8,97,123.6,97.2z"/>
</svg>
