<svg xmlns="http://www.w3.org/2000/svg" width="13" height="16" viewBox="0 0 13 16">
  <metadata><?xpacket begin="﻿" id="W5M0MpCehiHzreSzNTczkc9d"?>
<x:xmpmeta xmlns:x="adobe:ns:meta/" x:xmptk="Adobe XMP Core 5.6-c138 79.159824, 2016/09/14-01:09:01        ">
   <rdf:RDF xmlns:rdf="http://www.w3.org/1999/02/22-rdf-syntax-ns#">
      <rdf:Description rdf:about=""/>
   </rdf:RDF>
</x:xmpmeta>
                                                                                                    
                                                                                                    
                                                                                                    
                                                                                                    
                                                                                                    
                                                                                                    
                                                                                                    
                                                                                                    
                                                                                                    
                                                                                                    
                                                                                                    
                                                                                                    
                                                                                                    
                                                                                                    
                                                                                                    
                                                                                                    
                                                                                                    
                                                                                                    
                                                                                                    
                                                                                                    
                           
<?xpacket end="w"?></metadata>
<defs>
    <style>
      .cls-1 {
        fill: #c99937;
        fill-rule: evenodd;
      }
    </style>
  </defs>
  <path class="cls-1" d="M5.612,16C3,16,.123,13.95,0,11.081A5.406,5.406,0,0,1,3.426,5.969c-0.71,1.4,2.176,1.643,2.018-.078a15.4,15.4,0,0,1-.475-2.556A4.782,4.782,0,0,1,6.947,0a2.484,2.484,0,0,0,.237,2.145C9.072,5.011,13,6.75,13,10.643S9.163,16,7.56,16a3.685,3.685,0,0,0,2.067-5.483,2.759,2.759,0,0,1-2.443,2.458c1.721-1.619,1.9-4.819-.831-6.965C7.62,9.852,3.832,9.984,3.688,13.071,3.649,13.9,4,14.925,5.612,16Z"/>
</svg>
